<?xml version="1.0" encoding="utf-8"?>
<!-- Generator: Adobe Illustrator 23.0.1, SVG Export Plug-In . SVG Version: 6.00 Build 0)  -->
<svg version="1.1" id="Layer_1" xmlns="http://www.w3.org/2000/svg" xmlns:xlink="http://www.w3.org/1999/xlink" x="0px" y="0px"
	 viewBox="0 0 512 512" style="enable-background:new 0 0 512 512;" xml:space="preserve">
<style type="text/css">
	.st0{fill:#010101;}
</style>
<g>
	<path class="st0" d="M188.4,254.1c16.9,16.9,38.9,26.6,62.5,27.8c0.1,0,0.1,0,0.2,0c0.7,0,1.4,0.1,2.1,0.1c0.2,0,0.3,0,0.4,0
		c0.8,0,1.6,0,2.4,0s1.7,0,2.4,0c0.2,0,0.3,0,0.4,0c0.7,0,1.4-0.1,2.1-0.1c0.1,0,0.1,0,0.2,0c23.6-1.3,45.7-11,62.5-27.8
		c0.2-0.2,0.3-0.3,0.4-0.5c17.1-17.3,27.6-41.1,27.6-67.2c0-52.8-42.9-95.7-95.7-95.7s-95.7,42.9-95.7,95.7
		c0,26.2,10.6,49.9,27.6,67.2C188.1,253.8,188.3,254,188.4,254.1z M229.9,169c0-14.4,11.7-26,26-26s26,11.7,26,26
		c0,14.4-11.7,26-26,26C241.6,195.1,229.9,183.5,229.9,169z M302.9,249.1c-0.1,0.1-0.2,0.1-0.3,0.2c-0.4,0.3-0.8,0.7-1.3,0.9
		c-26.5,18.6-64.2,18.6-90.7,0c-0.4-0.3-0.8-0.6-1.3-0.9c-0.1-0.1-0.2-0.1-0.3-0.2c-1.4-1.1-2.8-2.3-4.3-3.4
		c9.1-20,29-33.1,51.2-33.1s42,13.1,51.2,33.1C305.7,246.8,304.3,248,302.9,249.1z M256,108.2c43.2,0,78.2,35.1,78.2,78.3
		c0,16.9-5.4,32.6-14.6,45.5c-8-13.8-20.1-24.5-34.4-30.7c8.8-7.9,14.3-19.4,14.3-32.2c0-24-19.5-43.5-43.5-43.5
		s-43.5,19.5-43.5,43.5c0,12.8,5.5,24.2,14.3,32.2c-14.3,6.3-26.5,16.9-34.4,30.7c-9.2-12.9-14.6-28.5-14.6-45.5
		C177.7,143.3,212.8,108.2,256,108.2z"/>
	<path class="st0" d="M412.5,56h-313C75.5,56,56,75.5,56,99.5v313c0,24,19.5,43.5,43.5,43.5h313c24,0,43.5-19.5,43.5-43.5v-313
		C456,75.5,436.5,56,412.5,56z M438.6,412.5c0,14.4-11.7,26-26,26h-313c-14.4,0-26.1-11.7-26.1-26v-313c0-14.4,11.7-26.1,26.1-26.1
		h313c14.4,0,26,11.7,26,26.1V412.5z"/>
	<path class="st0" d="M377.7,299.5H134.3c-24,0-43.5,19.5-43.5,43.5v34.8c0,24,19.5,43.5,43.5,43.5h243.5c24,0,43.5-19.5,43.5-43.5
		V343C421.2,318.9,401.7,299.5,377.7,299.5z M403.8,377.7c0,14.4-11.7,26-26,26H134.3c-14.4,0-26-11.7-26-26v-34.8
		c0-14.4,11.7-26,26-26h243.5c14.4,0,26,11.7,26,26L403.8,377.7L403.8,377.7z"/>
	<path class="st0" d="M175.2,336.8c-3.4-3.4-8.9-3.4-12.3,0l-11.3,11.3l-11.3-11.3c-3.4-3.4-8.9-3.4-12.3,0c-3.4,3.4-3.4,8.9,0,12.3
		l11.3,11.3l-11.3,11.3c-3.4,3.4-3.4,8.9,0,12.3c1.7,1.7,3.9,2.6,6.2,2.6s4.4-0.8,6.2-2.6l11.3-11.3l11.3,11.3
		c1.7,1.7,3.9,2.6,6.2,2.6s4.4-0.8,6.2-2.6c3.4-3.4,3.4-8.9,0-12.3l-11.4-11.3l11.3-11.3C178.6,345.7,178.6,340.2,175.2,336.8z"/>
	<path class="st0" d="M244.7,336.8c-3.4-3.4-8.9-3.4-12.3,0l-11.3,11.3l-11.3-11.3c-3.4-3.4-8.9-3.4-12.3,0c-3.4,3.4-3.4,8.9,0,12.3
		l11.3,11.3l-11.3,11.3c-3.4,3.4-3.4,8.9,0,12.3c1.7,1.7,3.9,2.6,6.2,2.6s4.4-0.8,6.2-2.6l11.3-11.3l11.3,11.3
		c1.7,1.7,3.9,2.6,6.2,2.6s4.4-0.8,6.2-2.6c3.4-3.4,3.4-8.9,0-12.3l-11.4-11.3l11.3-11.3C248.2,345.7,248.2,340.2,244.7,336.8z"/>
	<path class="st0" d="M314.3,336.8c-3.4-3.4-8.9-3.4-12.3,0l-11.3,11.3l-11.3-11.3c-3.4-3.4-8.9-3.4-12.3,0c-3.4,3.4-3.4,8.9,0,12.3
		l11.3,11.3l-11.3,11.3c-3.4,3.4-3.4,8.9,0,12.3c1.7,1.7,3.9,2.6,6.2,2.6s4.4-0.8,6.2-2.6l11.3-11.3l11.3,11.3
		c1.7,1.7,3.9,2.6,6.2,2.6c2.3,0,4.4-0.8,6.2-2.6c3.4-3.4,3.4-8.9,0-12.3l-11.4-11.3l11.3-11.3C317.7,345.7,317.7,340.2,314.3,336.8
		z"/>
	<path class="st0" d="M383.9,336.8c-3.4-3.4-8.9-3.4-12.3,0l-11.3,11.3l-11.3-11.3c-3.4-3.4-8.9-3.4-12.3,0c-3.4,3.4-3.4,8.9,0,12.3
		l11.3,11.3l-11.3,11.3c-3.4,3.4-3.4,8.9,0,12.3c1.7,1.7,3.9,2.6,6.2,2.6c2.3,0,4.4-0.8,6.2-2.6l11.3-11.3l11.3,11.3
		c1.7,1.7,3.9,2.6,6.2,2.6s4.4-0.8,6.2-2.6c3.4-3.4,3.4-8.9,0-12.3l-11.4-11.3l11.3-11.3C387.3,345.7,387.3,340.2,383.9,336.8z"/>
</g>
</svg>
